<svg width="115" height="100" overflow="visible" style="display: block;" viewBox="0 0 114.628 100.299" fill="none" xmlns="http://www.w3.org/2000/svg">
<g id="achievement" clip-path="url(#clip0_7100_252716)">
<path id="Vector" d="M111.045 80.3122H3.58165C1.61149 80.3122 -0.000461702 78.7002 -0.000461702 76.7301V3.86988C-0.000461702 1.89972 1.61149 0.287767 3.58165 0.287767H111.045C113.015 0.287767 114.627 1.89972 114.627 3.86988V76.7301C114.627 77.6801 114.25 78.5912 113.578 79.263C112.906 79.9348 111.995 80.3122 111.045 80.3122Z" fill="var(--fill-0, #43B67B)"/>
<path id="Vector_2" d="M104.629 20.7055V59.9117C98.8797 59.9117 94.2051 64.5685 94.2051 70.3178H20.4135C20.4135 64.5685 15.7568 59.9117 9.9896 59.9117V20.7055C15.7389 20.7055 20.4135 16.0488 20.4135 10.2995H94.2051C94.2051 16.0488 98.8618 20.7055 104.629 20.7055Z" fill="var(--fill-0, white)"/>
<path id="Vector_3" d="M42.7878 19.0373H72.4119V28.0284H42.7878V19.0373Z" fill="var(--fill-0, #D8D6DE)"/>
<path id="Vector_4" d="M25.1305 34.9975H89.519V40.6035H25.1305V34.9975ZM25.1305 45.4752H89.519V51.0812H25.1305V45.4752ZM25.1305 55.9707H89.519V61.5768H25.1305V55.9707Z" fill="var(--fill-0, #DDDDDD)"/>
<path id="Vector_5" d="M100.407 73.5942L108.628 87.8152L104.938 87.1525L103.881 86.9555L102.162 86.6331L101.571 88.2808L101.195 89.3197L99.9411 92.848L91.7201 78.6091L100.407 73.5942Z" fill="var(--fill-0, #FF7058)"/>
<path id="Vector_6" d="M97.9337 75.0285L104.937 87.1539L102.161 86.6345L101.193 89.3211L94.1904 77.1777L97.9337 75.0285Z" fill="var(--fill-0, #E8533F)"/>
<path id="Vector_7" d="M82.604 73.5942L74.383 87.8152L78.0726 87.1525L79.1293 86.9555L80.8487 86.6331L81.4398 88.2808L81.8159 89.3197L83.0697 92.848L91.2906 78.6091L82.604 73.5942Z" fill="var(--fill-0, #FF7058)"/>
<path id="Vector_8" d="M85.0739 75.0285L78.0709 87.1539L80.847 86.6345L81.8142 89.3211L88.8172 77.1777L85.0739 75.0285Z" fill="var(--fill-0, #E8533F)"/>
<path id="Vector_9" d="M109.452 64.1905C109.452 66.4294 106.264 68.0234 105.458 69.9757C104.616 71.9996 105.708 75.3667 104.186 76.8891C102.664 78.4115 99.2964 77.319 97.2725 78.1608C95.3203 78.9668 93.7262 82.1548 91.4874 82.1548C89.2486 82.1548 87.6546 78.9668 85.7023 78.1608C83.6784 77.319 80.3112 78.4115 78.7888 76.8891C77.2664 75.3667 78.359 71.9996 77.5172 69.9757C76.7112 68.0234 73.5231 66.4294 73.5231 64.1905C73.5231 61.9517 76.7112 60.3577 77.5172 58.4054C78.359 56.3815 77.2664 53.0144 78.7888 51.492C80.3112 49.9696 83.6784 51.0621 85.7023 50.2203C87.6546 49.4143 89.2486 46.2263 91.4874 46.2263C93.7262 46.2263 95.3203 49.4143 97.2725 50.2203C99.2964 51.0621 102.664 49.9696 104.186 51.492C105.708 53.0144 104.616 56.3815 105.458 58.4054C106.264 60.3577 109.452 61.9517 109.452 64.1905Z" fill="var(--fill-0, #F4C95A)"/>
<path id="Vector_10" d="M105.275 64.1903C105.275 65.9097 102.839 67.1276 102.212 68.6321C101.567 70.1903 102.409 72.7694 101.245 73.9336C100.081 75.0978 97.5018 74.256 95.9435 74.9008C94.457 75.5277 93.2211 77.9635 91.5017 77.9635C89.7823 77.9635 88.5644 75.5277 87.0599 74.9008C85.5017 74.256 82.9226 75.0978 81.7584 73.9336C80.5942 72.7694 81.436 70.1903 80.7912 68.6321C80.1643 67.1455 77.7285 65.9097 77.7285 64.1903C77.7285 62.4708 80.1643 61.2529 80.7912 59.7484C81.436 58.2081 80.5942 55.6111 81.7584 54.4469C82.9226 53.2827 85.5017 54.1245 87.0599 53.4797C88.5465 52.8529 89.7823 50.417 91.5017 50.417C93.2211 50.417 94.4391 52.8529 95.9435 53.4797C97.4839 54.1245 100.081 53.2827 101.245 54.4469C102.409 55.6111 101.567 58.1902 102.212 59.7484C102.821 61.235 105.275 62.4708 105.275 64.1903Z" fill="var(--fill-0, #E2A144)"/>
<path id="Vector_11" d="M104.187 64.1955C104.187 65.7716 101.931 66.9 101.375 68.2791C100.784 69.7119 101.555 72.094 100.48 73.1686C99.4052 74.2433 97.0231 73.4731 95.5903 74.0642C94.2112 74.6373 93.0828 76.8761 91.5067 76.8761C89.9306 76.8761 88.8022 74.6194 87.4231 74.0642C85.9902 73.4731 83.6081 74.2433 82.5335 73.1686C81.4589 72.094 82.229 69.7119 81.638 68.2791C81.0648 66.9 78.826 65.7716 78.826 64.1955C78.826 62.6193 81.0827 61.491 81.638 60.1119C82.229 58.679 81.4589 56.2969 82.5335 55.2223C83.6081 54.1476 85.9902 54.9178 87.4231 54.3267C88.8022 53.7536 89.9306 51.5148 91.5067 51.5148C93.0828 51.5148 94.2112 53.7715 95.5903 54.3267C97.0231 54.9178 99.4052 54.1476 100.48 55.2223C101.555 56.2969 100.784 58.679 101.375 60.1119C101.949 61.4731 104.187 62.6014 104.187 64.1955Z" fill="var(--fill-0, #EDAF4B)"/>
<path id="Vector_12" d="M88.6056 70.0102L84.1996 65.6221L85.6862 64.1355L88.6056 67.0729L97.3281 58.3504L98.8147 59.8191L88.6056 70.0102Z" fill="var(--fill-0, white)"/>
</g>
<defs>
<clipPath id="clip0_7100_252716">
<rect width="114.628" height="100.299" fill="white"/>
</clipPath>
</defs>
</svg>

