<svg width="24" height="24" viewBox="0 0 24 24" fill="none" xmlns="http://www.w3.org/2000/svg">
<path d="M18.3552 3.8112H12.0336C11.4792 2.8944 10.5012 2.2956 9.384 2.244C9.366 2.244 9.3456 2.2428 9.3264 2.2428H5.2032C5.0664 2.2428 4.9344 2.2656 4.812 2.3088C2.052 2.7144 0.0024 5.0652 0 7.8852V14.5284C0.0012 17.6388 2.5332 20.1708 5.6448 20.1708H11.412L11.5332 20.7912C11.6232 21.2532 11.976 21.6192 12.4344 21.726C12.5244 21.7476 12.6156 21.7572 12.7056 21.7572C12.7776 21.7572 12.8496 21.7512 12.9204 21.738H18.3588C21.4656 21.738 23.9964 19.2096 23.9988 16.098V9.456C24 6.3456 21.4716 3.8148 18.354 3.8124L18.3552 3.8112Z" fill="white"/>
<path d="M18.3612 5.00761H11.2512C11.2584 5.03641 11.2668 5.06521 11.2728 5.09401V5.11081L13.9116 18.9732H13.9224L12.7212 20.5416H18.3552C20.8104 20.544 22.8024 18.5556 22.8048 16.1004V9.45361C22.8048 6.99841 20.8164 5.00761 18.3624 5.00641L18.3612 5.00761ZM17.8344 15.4884H16.458V8.62441H17.8344V15.4884Z" fill="#D0D8E8"/>
<path d="M13.9128 18.9732V18.9756H12.396L12.7068 20.562L12.7212 20.5416L13.9236 18.9732H13.9128Z" fill="#803956"/>
<path d="M5.65555 3.43799H5.20435V3.46439C5.20435 3.46439 5.20675 3.46439 5.20915 3.46439C5.21395 3.46439 5.21875 3.46319 5.22475 3.46319C5.36875 3.44639 5.51275 3.43919 5.65675 3.43919L5.65555 3.43799Z" fill="#D0D8E8"/>
<path d="M8.66157 9.66119C8.66157 9.11039 8.28837 8.79599 7.63917 8.79599H6.38037V10.5168H7.63917C8.28837 10.5168 8.66157 10.2216 8.66157 9.66119Z" fill="#FF4D56"/>
<path d="M7.73757 11.5788H6.38037V13.428H7.76757C8.43597 13.428 8.82957 13.104 8.82957 12.5232C8.82957 11.9424 8.40717 11.5788 7.73757 11.5788Z" fill="#FF4D56"/>
<path d="M13.9127 18.9756V18.9732L11.2739 5.11081V5.09401C11.2679 5.06521 11.2595 5.03641 11.2523 5.00761C11.0267 4.12201 10.2491 3.48121 9.32989 3.43921H5.65669C5.51269 3.43921 5.36749 3.44641 5.22469 3.46321C5.21989 3.46321 5.21509 3.46441 5.20909 3.46441C2.93509 3.68761 1.19869 5.59921 1.19629 7.88641V14.5296C1.19629 16.986 3.18949 18.9768 5.64589 18.9768H13.9139L13.9127 18.9756ZM7.96309 14.5488H5.00269V7.68481H7.83469C9.27109 7.68481 10.0667 8.43241 10.0667 9.45481C10.0667 10.2912 9.56509 10.812 8.89669 11.028C9.67309 11.166 10.2239 11.8836 10.2239 12.69C10.2239 13.782 9.38749 14.5488 7.96189 14.5488H7.96309Z" fill="#FF4D56"/>
<path d="M8.89791 11.028C9.56631 10.812 10.0679 10.29 10.0679 9.45478C10.0679 8.43238 9.27111 7.68478 7.83591 7.68478H5.00391V14.5488H7.96431C9.38991 14.5488 10.2263 13.782 10.2263 12.69C10.2263 11.8836 9.67551 11.166 8.89911 11.028H8.89791ZM6.38031 8.79478H7.63911C8.28831 8.79478 8.66151 9.10918 8.66151 9.65998C8.66151 10.2108 8.28831 10.5156 7.63911 10.5156H6.38031V8.79478ZM7.76751 13.4268H6.38031V11.5776H7.73751C8.40591 11.5776 8.82951 11.9316 8.82951 12.522C8.82951 13.1124 8.43591 13.4268 7.76751 13.4268Z" fill="#D0D8E8"/>
<path d="M17.8344 8.6232H16.458V15.4872H17.8344V8.6232Z" fill="#FF4D56"/>
</svg>
